<?xml version="1.0" ?><!DOCTYPE svg  PUBLIC '-//W3C//DTD SVG 1.1//EN'  'http://www.w3.org/Graphics/SVG/1.1/DTD/svg11.dtd'><svg enable-background="new 0 0 512 512" height="512px" id="Calque_1" version="1.1" viewBox="0 0 512 512" width="512px" xml:space="preserve" xmlns="http://www.w3.org/2000/svg" xmlns:xlink="http://www.w3.org/1999/xlink"><g><g><circle cx="256" cy="256.162" fill="none" r="125.645" stroke="#000000" stroke-linecap="round" stroke-linejoin="round" stroke-miterlimit="10" stroke-width="7"/><polyline fill="none" points="    224.084,134.612 230.253,104.772 281.746,104.772 287.917,134.612   " stroke="#000000" stroke-linecap="round" stroke-linejoin="round" stroke-miterlimit="10" stroke-width="7"/><polyline fill="none" points="    153.42,183.565 138.966,156.74 178.412,123.642 202.319,142.534   " stroke="#000000" stroke-linecap="round" stroke-linejoin="round" stroke-miterlimit="10" stroke-width="7"/><polyline fill="none" points="    130.754,266.486 102.44,255.228 111.382,204.518 141.839,203.623   " stroke="#000000" stroke-linecap="round" stroke-linejoin="round" stroke-miterlimit="10" stroke-width="7"/><polyline fill="none" points="    166.693,344.577 137.766,354.152 112.02,309.559 134.776,289.297   " stroke="#000000" stroke-linecap="round" stroke-linejoin="round" stroke-miterlimit="10" stroke-width="7"/><polyline fill="none" points="    244.419,381.298 228.415,407.227 180.029,389.616 184.435,359.466   " stroke="#000000" stroke-linecap="round" stroke-linejoin="round" stroke-miterlimit="10" stroke-width="7"/><polyline fill="none" points="    327.565,359.466 331.972,389.616 283.584,407.227 267.581,381.299   " stroke="#000000" stroke-linecap="round" stroke-linejoin="round" stroke-miterlimit="10" stroke-width="7"/><polyline fill="none" points="    377.224,289.297 399.981,309.559 374.235,354.152 345.307,344.577   " stroke="#000000" stroke-linecap="round" stroke-linejoin="round" stroke-miterlimit="10" stroke-width="7"/><polyline fill="none" points="    370.161,203.622 400.617,204.518 409.561,255.228 381.245,266.488   " stroke="#000000" stroke-linecap="round" stroke-linejoin="round" stroke-miterlimit="10" stroke-width="7"/><polyline fill="none" points="    309.681,142.533 333.588,123.642 373.034,156.74 358.58,183.565   " stroke="#000000" stroke-linecap="round" stroke-linejoin="round" stroke-miterlimit="10" stroke-width="7"/></g><circle cx="256" cy="256.162" fill="none" r="89.308" stroke="#000000" stroke-dasharray="32.713,20.4457,1.0223,0,3.0669,32.7131" stroke-linecap="round" stroke-linejoin="round" stroke-miterlimit="10" stroke-width="7"/><circle cx="256" cy="256.162" fill="none" r="22.114" stroke="#000000" stroke-linecap="round" stroke-linejoin="round" stroke-miterlimit="10" stroke-width="7"/></g><g><circle cx="256.001" cy="256" fill="none" r="218.662" stroke="#010101" stroke-dasharray="32.7131,20.4457,1.0223,0,3.0669,32.7131" stroke-linecap="round" stroke-linejoin="round" stroke-width="7"/></g></svg>